<svg width="390" height="514" viewBox="0 0 390 514" fill="none" xmlns="http://www.w3.org/2000/svg">
<g clip-path="url(#clip0_9_2474)">
<path d="M278.755 313.938C248.378 313.938 223.755 317.798 223.755 322.559C223.755 327.32 248.378 331.179 278.755 331.179C309.132 331.179 333.753 327.319 333.753 322.559C333.753 317.799 309.13 313.938 278.755 313.938Z" fill="#181F79"/>
<path d="M214.707 320.833C184.33 320.833 159.706 324.692 159.706 329.454C159.706 334.216 184.33 338.075 214.707 338.075C245.083 338.075 269.707 334.216 269.707 329.454C269.707 324.692 245.082 320.833 214.707 320.833Z" fill="#181F79"/>
<path d="M232.107 317.925C210.475 317.925 192.94 320.799 192.94 324.343C192.94 327.887 210.475 330.76 232.107 330.76C253.738 330.76 271.272 327.886 271.272 324.343C271.272 320.8 253.737 317.925 232.107 317.925Z" fill="#CECDD3"/>
<path d="M271.272 310.147H192.94V324.343H271.272V310.147Z" fill="#CECDD3"/>
<path d="M232.107 303.73C210.475 303.73 192.94 306.602 192.94 310.147C192.94 313.691 210.475 316.564 232.107 316.564C253.738 316.564 271.272 313.691 271.272 310.147C271.272 306.602 253.737 303.73 232.107 303.73Z" fill="white"/>
<path d="M232.107 305.431C212.015 305.431 195.726 307.542 195.726 310.147C195.726 312.751 212.015 314.862 232.107 314.862C252.199 314.862 268.486 312.751 268.486 310.147C268.486 307.542 252.198 305.431 232.107 305.431Z" fill="white"/>
<path d="M232.107 305.431C212.015 305.431 195.726 307.542 195.726 310.147C195.726 310.816 196.813 311.449 198.745 312.027C204.347 310.356 217.168 309.189 232.107 309.189C247.047 309.189 259.865 310.356 265.47 312.027C267.402 311.449 268.488 310.816 268.488 310.147C268.486 307.542 252.198 305.431 232.107 305.431Z" fill="#CECDD3"/>
<path d="M209.696 312.481L217.056 313.737L255.259 311.572L247.898 310.318L209.696 312.481Z" fill="url(#paint0_linear_9_2474)"/>
<path d="M304.374 243.705C287.637 243.705 274.069 245.693 274.069 248.143C274.069 250.593 287.637 252.58 304.374 252.58C321.111 252.58 334.679 250.593 334.679 248.143C334.679 245.693 321.112 243.705 304.374 243.705Z" fill="#181F79"/>
<path opacity="0.5" d="M226.881 263.768L250.74 256.515L226.881 263.752V263.768Z" fill="url(#paint1_radial_9_2474)"/>
<path opacity="0.5" d="M205.739 271.948H205.752L205.739 269.093V271.948Z" fill="url(#paint2_radial_9_2474)"/>
<path d="M293.858 327.099C272.2 327.099 254.642 329.957 254.642 333.487C254.642 337.016 272.201 339.873 293.858 339.873C315.516 339.873 333.074 337.014 333.074 333.487C333.074 329.959 315.517 327.099 293.858 327.099Z" fill="#CECDD3"/>
<path d="M333.074 319.355H254.641V333.486H333.074V319.355Z" fill="#CECDD3"/>
<path d="M293.858 312.967C272.2 312.967 254.642 315.827 254.642 319.355C254.642 322.882 272.201 325.744 293.858 325.744C315.516 325.744 333.074 322.882 333.074 319.355C333.074 315.827 315.517 312.967 293.858 312.967Z" fill="white"/>
<path d="M293.858 314.662C273.741 314.662 257.432 316.763 257.432 319.355C257.432 321.947 273.741 324.049 293.858 324.049C313.976 324.049 330.286 321.948 330.286 319.355C330.286 316.762 313.977 314.662 293.858 314.662Z" fill="white"/>
<path d="M293.858 314.662C273.741 314.662 257.432 316.763 257.432 319.355C257.432 320.021 258.519 320.652 260.454 321.226C266.064 319.564 278.901 318.401 293.858 318.401C308.815 318.401 321.652 319.564 327.263 321.226C329.199 320.652 330.286 320.021 330.286 319.355C330.286 316.763 313.977 314.662 293.858 314.662Z" fill="#CECDD3"/>
<path d="M271.419 321.678L278.788 322.927L317.041 320.772L309.672 319.524L271.419 321.678Z" fill="url(#paint3_linear_9_2474)"/>
<path d="M302.6 281.329C282.218 281.329 265.694 283.749 265.694 286.733C265.694 289.718 282.218 292.138 302.6 292.138C322.983 292.138 339.505 289.718 339.505 286.733C339.505 283.749 322.981 281.329 302.6 281.329Z" fill="#181F79"/>
<path d="M313.521 281.993C299.713 281.993 288.518 283.815 288.518 286.066C288.518 288.316 299.713 290.137 313.521 290.137C327.328 290.137 338.523 288.315 338.523 286.066C338.523 283.817 327.328 281.993 313.521 281.993Z" fill="#CECDD3"/>
<path d="M338.524 277.054H288.518V286.064H338.524V277.054Z" fill="#CECDD3"/>
<path d="M313.521 272.983C299.713 272.983 288.518 274.806 288.518 277.054C288.518 279.302 299.713 281.128 313.521 281.128C327.328 281.128 338.523 279.305 338.523 277.054C338.523 274.803 327.328 272.983 313.521 272.983Z" fill="white"/>
<path d="M313.521 274.062C300.694 274.062 290.295 275.402 290.295 277.054C290.295 278.707 300.693 280.048 313.521 280.048C326.348 280.048 336.746 278.708 336.746 277.054C336.746 275.4 326.347 274.062 313.521 274.062Z" fill="white"/>
<path d="M313.521 274.062C300.694 274.062 290.295 275.402 290.295 277.054C290.295 277.478 290.988 277.882 292.222 278.248C295.799 277.188 303.984 276.446 313.519 276.446C323.055 276.446 331.24 277.188 334.816 278.248C336.05 277.882 336.743 277.478 336.743 277.054C336.744 275.402 326.347 274.062 313.521 274.062Z" fill="#CECDD3"/>
<path d="M299.215 278.536L303.913 279.332L328.3 277.958L323.601 277.163L299.215 278.536Z" fill="url(#paint4_linear_9_2474)"/>
<path d="M312.88 250.386C323.348 250.386 331.833 249.004 331.833 247.299C331.833 245.594 323.348 244.212 312.88 244.212C302.413 244.212 293.928 245.594 293.928 247.299C293.928 249.004 302.413 250.386 312.88 250.386Z" fill="#CECDD3"/>
<path d="M331.833 240.47H293.928V247.3H331.833V240.47Z" fill="#CECDD3"/>
<path d="M312.88 243.557C323.348 243.557 331.833 242.175 331.833 240.47C331.833 238.765 323.348 237.383 312.88 237.383C302.413 237.383 293.928 238.765 293.928 240.47C293.928 242.175 302.413 243.557 312.88 243.557Z" fill="white"/>
<path d="M312.88 238.203C303.158 238.203 295.276 239.218 295.276 240.47C295.276 241.722 303.158 242.74 312.88 242.74C322.603 242.74 330.485 241.724 330.485 240.47C330.485 239.217 322.603 238.203 312.88 238.203Z" fill="white"/>
<path d="M312.88 238.203C303.158 238.203 295.276 239.218 295.276 240.47C295.276 240.792 295.802 241.097 296.736 241.374C299.449 240.573 305.651 240.011 312.88 240.011C320.11 240.011 326.313 240.573 329.024 241.374C329.959 241.098 330.485 240.793 330.485 240.47C330.485 239.218 322.603 238.203 312.88 238.203Z" fill="#CECDD3"/>
<path d="M302.036 241.594L305.598 242.196L324.085 241.156L320.523 240.552L302.036 241.594Z" fill="url(#paint5_linear_9_2474)"/>
<path d="M165.553 345.343C148.816 345.343 135.249 347.33 135.249 349.781C135.249 352.232 148.816 354.218 165.553 354.218C182.291 354.218 195.859 352.231 195.859 349.781C195.859 347.331 182.291 345.343 165.553 345.343Z" fill="#181F79"/>
<path d="M174.061 345.851C163.591 345.851 155.107 347.231 155.107 348.938C155.107 350.645 163.593 352.025 174.061 352.025C184.53 352.025 193.013 350.645 193.013 348.938C193.013 347.231 184.528 345.851 174.061 345.851Z" fill="#CECDD3"/>
<path d="M193.013 342.109H155.107V348.938H193.013V342.109Z" fill="#CECDD3"/>
<path d="M174.061 339.021C163.591 339.021 155.107 340.402 155.107 342.109C155.107 343.816 163.593 345.197 174.061 345.197C184.53 345.197 193.013 343.814 193.013 342.109C193.013 340.404 184.528 339.021 174.061 339.021Z" fill="white"/>
<path d="M174.062 339.84C164.337 339.84 156.456 340.855 156.456 342.109C156.456 343.362 164.337 344.377 174.062 344.377C183.786 344.377 191.666 343.362 191.666 342.109C191.666 340.856 183.784 339.84 174.062 339.84Z" fill="white"/>
<path d="M174.062 339.84C164.337 339.84 156.456 340.855 156.456 342.109C156.456 342.431 156.979 342.735 157.917 343.013C160.629 342.21 166.832 341.647 174.062 341.647C181.291 341.647 187.494 342.21 190.205 343.013C191.141 342.734 191.666 342.43 191.666 342.109C191.666 340.855 183.784 339.84 174.062 339.84Z" fill="#CECDD3"/>
<path d="M163.217 343.231L166.777 343.835L185.264 342.793L181.703 342.191L163.217 343.231Z" fill="url(#paint6_linear_9_2474)"/>
<path d="M227.852 16.9282H61V53.367H237.648V26.7261C237.648 24.1279 236.616 21.636 234.779 19.7986C232.942 17.9612 230.451 16.9287 227.852 16.9282Z" fill="#2B1BED"/>
<path d="M237.65 64.428H61.0018V100.867H237.65V64.428Z" fill="#2B1BED"/>
<path d="M237.65 111.928H61.0018V148.367H237.65V111.928Z" fill="#2B1BED"/>
<path d="M237.65 159.43H61.0018V195.869H237.65V159.43Z" fill="#2B1BED"/>
<path d="M237.65 206.928H61.0018V243.369H237.65V206.928Z" fill="#2B1BED"/>
<path d="M61 290.869H227.851C229.137 290.869 230.411 290.615 231.6 290.123C232.789 289.631 233.869 288.909 234.779 287.999C235.689 287.09 236.41 286.009 236.903 284.821C237.395 283.632 237.648 282.358 237.648 281.071V254.43H61V290.869Z" fill="#2B1BED"/>
<path d="M117.288 286.011H130.636L133.523 262.096H114.399L117.288 286.011Z" fill="#CECDD3"/>
<path d="M117.387 288.921C117.387 290.049 118.849 290.964 120.653 290.964H127.269C128.026 290.975 128.774 290.797 129.444 290.445C129.746 290.312 130.006 290.101 130.198 289.833C130.39 289.565 130.507 289.251 130.536 288.922V286.012H117.387V288.921Z" fill="white"/>
<path d="M133.523 260.392H114.398V262.096H133.523V260.392Z" fill="url(#paint7_linear_9_2474)"/>
<path d="M118.534 281.382H129.591L131.365 265.936H116.363L118.534 281.382Z" fill="white"/>
<path d="M118.714 270.028H129.112L129.29 268.48H118.5L118.714 270.028Z" fill="url(#paint8_linear_9_2474)"/>
<path d="M201.571 16.627H190.576V291.759H201.571V16.627Z" fill="url(#paint9_linear_9_2474)"/>
<path d="M153.67 16.627H142.673V291.759H153.67V16.627Z" fill="url(#paint10_linear_9_2474)"/>
<path d="M105.767 16.627H94.7708V291.759H105.767V16.627Z" fill="url(#paint11_linear_9_2474)"/>
<path d="M217.001 21.8906H214.296C213.748 21.8923 213.224 22.1113 212.837 22.4995C212.451 22.8877 212.235 23.4133 212.236 23.9609V26.8902H219.06V23.9609C219.062 23.4133 218.845 22.8876 218.459 22.4993C218.073 22.1111 217.548 21.8921 217.001 21.8906Z" fill="#5CCFFE"/>
<path d="M217.001 21.8906H214.296C213.748 21.8923 213.224 22.1113 212.837 22.4995C212.451 22.8877 212.235 23.4133 212.236 23.9609V26.8902H214.873V25.1474C214.873 22.8706 217.241 22.14 218.781 22.9377C218.604 22.6209 218.346 22.357 218.033 22.173C217.72 21.9891 217.364 21.8916 217.001 21.8906Z" fill="#4497B7"/>
<path d="M219.017 26.8903H212.508C211.885 26.8895 211.285 27.1252 210.83 27.5499C210.578 27.7841 210.377 28.0677 210.239 28.3829C210.102 28.6981 210.031 29.0383 210.031 29.3822V51.5128C210.029 52.0035 210.223 52.4747 210.569 52.8227C210.915 53.1708 211.384 53.3672 211.875 53.3689H219.65C219.893 53.3681 220.133 53.3195 220.358 53.2258C220.582 53.1322 220.785 52.9952 220.957 52.8229C221.128 52.6505 221.264 52.4461 221.356 52.2213C221.448 51.9965 221.495 51.7558 221.495 51.5128V29.3822C221.496 28.7233 221.236 28.0908 220.772 27.6235C220.307 27.1563 219.676 26.8925 219.017 26.8903Z" fill="#4497B7"/>
<path d="M219.017 26.8903H212.508C211.885 26.8895 211.285 27.1252 210.83 27.5499C210.578 27.7841 210.377 28.0677 210.239 28.3829C210.102 28.6981 210.031 29.0383 210.031 29.3822V51.5128C210.029 52.0035 210.223 52.4747 210.569 52.8227C210.915 53.1708 211.384 53.3672 211.875 53.3689H213.681V34.0886C213.681 29.5792 218.987 28.5322 221.495 30.9147V29.3841C221.497 28.7249 221.237 28.0918 220.772 27.6242C220.308 27.1565 219.676 26.8925 219.017 26.8903Z" fill="#5CCFFE"/>
<path d="M217.001 69.4043H214.296C214.024 69.4051 213.756 69.4594 213.506 69.5639C213.255 69.6685 213.028 69.8214 212.837 70.0138C212.646 70.2062 212.494 70.4345 212.391 70.6854C212.288 70.9364 212.235 71.2052 212.236 71.4765V74.4044H219.06V71.4765C219.061 71.2052 219.009 70.9363 218.906 70.6853C218.803 70.4342 218.651 70.206 218.46 70.0135C218.269 69.8211 218.041 69.6682 217.791 69.5637C217.541 69.4591 217.272 69.405 217.001 69.4043Z" fill="#5CCFFE"/>
<path d="M217.001 69.4043H214.296C214.024 69.4051 213.756 69.4594 213.506 69.5639C213.255 69.6685 213.028 69.8214 212.837 70.0138C212.646 70.2062 212.494 70.4345 212.391 70.6854C212.288 70.9364 212.235 71.2052 212.236 71.4765V74.4044H214.873V72.6615C214.873 70.3847 217.241 69.6542 218.781 70.4504C218.604 70.1341 218.345 69.8707 218.032 69.6869C217.72 69.5031 217.364 69.4056 217.001 69.4043Z" fill="#4497B7"/>
<path d="M219.017 74.4043H212.508C211.886 74.4043 211.286 74.6394 210.83 75.0625C210.578 75.2971 210.377 75.5811 210.239 75.8967C210.102 76.2124 210.031 76.5529 210.031 76.8972V99.0278C210.029 99.5185 210.223 99.9897 210.569 100.338C210.915 100.686 211.384 100.882 211.875 100.884H219.65C219.893 100.883 220.133 100.835 220.358 100.741C220.582 100.647 220.785 100.51 220.957 100.338C221.128 100.166 221.264 99.9611 221.356 99.7363C221.448 99.5115 221.495 99.2707 221.495 99.0278V76.8972C221.496 76.5708 221.432 76.2474 221.308 75.9455C221.184 75.6436 221.002 75.3691 220.772 75.1376C220.542 74.9061 220.269 74.7222 219.967 74.5964C219.666 74.4706 219.343 74.4053 219.017 74.4043Z" fill="#4497B7"/>
<path d="M219.017 74.4043H212.508C211.886 74.4043 211.286 74.6394 210.83 75.0625C210.578 75.297 210.377 75.5808 210.239 75.8963C210.102 76.2117 210.031 76.5521 210.031 76.8962V99.0268C210.029 99.5175 210.223 99.9887 210.569 100.337C210.915 100.685 211.384 100.881 211.875 100.883H213.681V81.6022C213.681 77.0918 218.987 76.0462 221.495 78.4278V76.8981C221.496 76.5717 221.433 76.2482 221.309 75.9462C221.185 75.6442 221.003 75.3695 220.772 75.1379C220.542 74.9063 220.269 74.7224 219.968 74.5965C219.666 74.4706 219.343 74.4053 219.017 74.4043Z" fill="#5CCFFE"/>
<path d="M217.001 116.918H214.296C214.024 116.919 213.756 116.973 213.506 117.078C213.256 117.182 213.028 117.335 212.837 117.527C212.646 117.719 212.494 117.948 212.391 118.198C212.288 118.449 212.236 118.718 212.236 118.989V121.918H219.06V118.988C219.061 118.717 219.008 118.448 218.905 118.198C218.802 117.947 218.65 117.719 218.459 117.527C218.268 117.335 218.041 117.182 217.791 117.077C217.54 116.973 217.272 116.919 217.001 116.918Z" fill="#5CCFFE"/>
<path d="M217.001 116.917H214.296C213.748 116.919 213.223 117.138 212.837 117.527C212.451 117.915 212.235 118.441 212.236 118.989V121.918H214.873V120.176C214.873 117.899 217.241 117.168 218.781 117.966C218.604 117.649 218.346 117.385 218.033 117.201C217.72 117.016 217.364 116.918 217.001 116.917Z" fill="#4497B7"/>
<path d="M219.017 121.918H212.508C211.885 121.918 211.285 122.153 210.83 122.578C210.578 122.812 210.377 123.096 210.239 123.411C210.102 123.726 210.031 124.066 210.031 124.41V146.541C210.029 147.032 210.223 147.503 210.569 147.851C210.915 148.199 211.384 148.395 211.875 148.397H219.65C219.893 148.396 220.133 148.348 220.358 148.254C220.582 148.16 220.785 148.023 220.957 147.851C221.128 147.679 221.264 147.474 221.356 147.249C221.448 147.025 221.495 146.784 221.495 146.541V124.41C221.496 123.751 221.236 123.119 220.772 122.651C220.307 122.184 219.676 121.92 219.017 121.918Z" fill="#4497B7"/>
<path d="M219.017 121.918H212.508C211.885 121.918 211.285 122.153 210.83 122.578C210.578 122.812 210.377 123.096 210.239 123.411C210.102 123.726 210.031 124.066 210.031 124.41V146.541C210.029 147.032 210.223 147.503 210.569 147.851C210.915 148.199 211.384 148.395 211.875 148.397H213.681V129.114C213.681 124.604 218.987 123.558 221.495 125.941V124.41C221.496 123.751 221.236 123.119 220.772 122.651C220.307 122.184 219.676 121.92 219.017 121.918Z" fill="#5CCFFE"/>
<path d="M217.001 211.945H214.296C213.748 211.947 213.223 212.166 212.837 212.555C212.451 212.943 212.235 213.469 212.236 214.017V216.947H219.06V214.017C219.061 213.746 219.008 213.477 218.905 213.226C218.802 212.975 218.651 212.747 218.46 212.555C218.269 212.362 218.041 212.209 217.791 212.105C217.541 212 217.272 211.946 217.001 211.945Z" fill="#5CCFFE"/>
<path d="M217.001 211.945H214.296C213.748 211.947 213.223 212.166 212.837 212.555C212.451 212.943 212.235 213.469 212.236 214.017V216.947H214.873V215.202C214.873 212.927 217.241 212.196 218.781 212.993C218.604 212.676 218.346 212.412 218.033 212.228C217.72 212.044 217.364 211.946 217.001 211.945Z" fill="#4497B7"/>
<path d="M219.017 216.947H212.508C211.885 216.946 211.285 217.182 210.83 217.606C210.578 217.84 210.377 218.124 210.239 218.439C210.102 218.754 210.031 219.095 210.031 219.438V241.569C210.029 242.06 210.223 242.531 210.569 242.879C210.915 243.227 211.384 243.424 211.875 243.425H219.65C219.893 243.424 220.133 243.376 220.358 243.282C220.582 243.188 220.785 243.052 220.957 242.879C221.128 242.707 221.264 242.502 221.356 242.278C221.448 242.053 221.495 241.812 221.495 241.569V219.438C221.496 218.78 221.236 218.147 220.772 217.68C220.307 217.212 219.676 216.949 219.017 216.947Z" fill="#4497B7"/>
<path d="M219.017 216.947H212.508C211.886 216.946 211.286 217.181 210.83 217.605C210.578 217.839 210.377 218.123 210.24 218.439C210.102 218.754 210.031 219.094 210.031 219.438V241.569C210.029 242.06 210.223 242.531 210.569 242.879C210.915 243.227 211.384 243.424 211.875 243.425H213.681V224.143C213.681 219.632 218.987 218.586 221.495 220.969V219.438C221.496 218.78 221.236 218.147 220.772 217.68C220.307 217.212 219.676 216.949 219.017 216.947Z" fill="#5CCFFE"/>
<path d="M182.97 38.134H160.711C159.839 38.1426 159.007 38.4968 158.396 39.1188C157.786 39.7408 157.447 40.5797 157.455 41.4512V50.0488C157.45 50.4806 157.531 50.909 157.692 51.3096C157.854 51.7101 158.092 52.075 158.395 52.3832C158.697 52.6914 159.057 52.9369 159.455 53.1057C159.852 53.2745 160.279 53.3633 160.711 53.367H182.97C183.401 53.3631 183.828 53.2741 184.225 53.1052C184.623 52.9362 184.983 52.6907 185.285 52.3825C185.587 52.0743 185.825 51.7096 185.987 51.3091C186.148 50.9087 186.228 50.4804 186.224 50.0488V41.4512C186.232 40.5799 185.894 39.7411 185.284 39.119C184.673 38.497 183.841 38.1427 182.97 38.134Z" fill="white"/>
<path d="M183.367 32.8427H159.877C159.465 32.844 159.07 33.0091 158.78 33.3014C158.489 33.5938 158.327 33.9896 158.328 34.4018V36.5753C158.327 36.7794 158.367 36.9816 158.444 37.1703C158.522 37.3591 158.636 37.5308 158.78 37.6755C158.923 37.8202 159.094 37.9352 159.283 38.0139C159.471 38.0926 159.673 38.1334 159.877 38.134H183.367C183.571 38.1334 183.773 38.0926 183.961 38.0139C184.15 37.9352 184.321 37.8202 184.464 37.6755C184.608 37.5307 184.722 37.3591 184.8 37.1703C184.877 36.9815 184.917 36.7794 184.916 36.5753V34.4018C184.917 34.1977 184.877 33.9955 184.8 33.8067C184.722 33.6179 184.608 33.4463 184.464 33.3015C184.321 33.1567 184.15 33.0417 183.961 32.9629C183.773 32.8842 183.571 32.8433 183.367 32.8427Z" fill="url(#paint12_linear_9_2474)"/>
<path d="M160.362 49.6024H183.61L184.19 40.5408H159.683L160.362 49.6024Z" fill="#4497B7"/>
<path d="M183.028 41.7582H160.943V43.5624H183.028V41.7582Z" fill="url(#paint13_linear_9_2474)"/>
<path d="M171.017 47.9462H161.427V48.7257H171.017V47.9462Z" fill="#181F79"/>
<path d="M181.575 47.9462H171.985V48.7257H181.575V47.9462Z" fill="#181F79"/>
<path d="M182.97 85.6343H160.711C159.839 85.6429 159.007 85.9974 158.396 86.6197C157.785 87.242 157.447 88.0812 157.455 88.9529V97.55C157.451 97.9817 157.531 98.41 157.693 98.8105C157.854 99.2109 158.093 99.5756 158.395 99.8837C158.697 100.192 159.058 100.437 159.455 100.606C159.852 100.775 160.279 100.864 160.711 100.867H182.97C183.401 100.863 183.828 100.774 184.225 100.606C184.622 100.437 184.982 100.191 185.284 99.8831C185.587 99.575 185.825 99.2104 185.986 98.81C186.147 98.4097 186.228 97.9816 186.224 97.55V88.9529C186.232 88.0814 185.894 87.2422 185.284 86.6199C184.674 85.9976 183.841 85.6431 182.97 85.6343Z" fill="white"/>
<path d="M183.367 80.343H159.877C159.673 80.3435 159.471 80.3842 159.282 80.4629C159.094 80.5415 158.923 80.6565 158.779 80.8012C158.635 80.946 158.521 81.1177 158.444 81.3065C158.366 81.4953 158.327 81.6976 158.328 81.9017V84.0743C158.327 84.2784 158.366 84.4806 158.444 84.6694C158.521 84.8583 158.635 85.03 158.779 85.1747C158.923 85.3195 159.094 85.4345 159.282 85.5131C159.471 85.5917 159.673 85.6324 159.877 85.6329H183.367C183.571 85.6324 183.773 85.5917 183.962 85.5131C184.15 85.4344 184.321 85.3195 184.465 85.1747C184.609 85.0299 184.722 84.8582 184.8 84.6694C184.877 84.4806 184.917 84.2783 184.916 84.0743V81.9017C184.917 81.6976 184.877 81.4954 184.8 81.3065C184.722 81.1177 184.609 80.946 184.465 80.8013C184.321 80.6565 184.15 80.5415 183.962 80.4629C183.773 80.3842 183.571 80.3435 183.367 80.343Z" fill="url(#paint14_linear_9_2474)"/>
<path d="M160.362 97.1026H183.61L184.19 88.041H159.683L160.362 97.1026Z" fill="#4497B7"/>
<path d="M183.028 89.2594H160.943V91.0608H183.028V89.2594Z" fill="url(#paint15_linear_9_2474)"/>
<path d="M171.017 95.446H161.427V96.2256H171.017V95.446Z" fill="#181F79"/>
<path d="M181.575 95.446H171.985V96.2256H181.575V95.446Z" fill="#181F79"/>
<path d="M182.97 180.634H160.711C159.839 180.643 159.007 180.997 158.396 181.619C157.786 182.241 157.447 183.08 157.455 183.952V192.549C157.451 192.981 157.532 193.409 157.693 193.81C157.854 194.21 158.093 194.575 158.395 194.883C158.698 195.191 159.058 195.437 159.455 195.606C159.852 195.775 160.279 195.864 160.711 195.868H182.97C183.401 195.864 183.828 195.775 184.225 195.606C184.623 195.437 184.983 195.191 185.285 194.883C185.587 194.575 185.826 194.21 185.987 193.81C186.148 193.409 186.228 192.981 186.224 192.549V183.952C186.232 183.081 185.894 182.242 185.284 181.62C184.673 180.998 183.841 180.643 182.97 180.634Z" fill="white"/>
<path d="M183.367 175.344H159.877C159.673 175.345 159.471 175.386 159.282 175.464C159.094 175.543 158.923 175.658 158.779 175.803C158.635 175.947 158.521 176.119 158.444 176.308C158.366 176.497 158.327 176.699 158.328 176.903V179.077C158.327 179.281 158.367 179.483 158.444 179.672C158.522 179.86 158.636 180.032 158.78 180.177C158.924 180.321 159.095 180.436 159.283 180.515C159.471 180.593 159.673 180.634 159.877 180.634H183.367C183.571 180.634 183.773 180.593 183.961 180.515C184.149 180.436 184.32 180.321 184.464 180.177C184.608 180.032 184.722 179.86 184.799 179.672C184.877 179.483 184.916 179.281 184.916 179.077V176.903C184.917 176.699 184.877 176.497 184.8 176.308C184.722 176.119 184.609 175.947 184.465 175.803C184.321 175.658 184.15 175.543 183.962 175.464C183.773 175.386 183.571 175.345 183.367 175.344Z" fill="url(#paint16_linear_9_2474)"/>
<path d="M160.362 192.104H183.61L184.19 183.041H159.683L160.362 192.104Z" fill="#4497B7"/>
<path d="M183.028 184.26H160.943V186.063H183.028V184.26Z" fill="url(#paint17_linear_9_2474)"/>
<path d="M171.017 190.448H161.427V191.226H171.017V190.448Z" fill="#181F79"/>
<path d="M181.575 190.448H171.985V191.226H181.575V190.448Z" fill="#181F79"/>
<path d="M117.288 95.9148H130.636L133.523 71.9995H114.399L117.288 95.9148Z" fill="#CECDD3"/>
<path d="M117.387 98.8245C117.387 99.9539 118.849 100.867 120.653 100.867H127.269C128.026 100.879 128.774 100.701 129.444 100.35C129.746 100.217 130.006 100.005 130.198 99.7373C130.39 99.4695 130.507 99.1551 130.536 98.8269V95.9171H117.387V98.8245Z" fill="white"/>
<path d="M133.523 70.2957H114.398V71.9995H133.523V70.2957Z" fill="url(#paint18_linear_9_2474)"/>
<path d="M118.534 91.2855H129.591L131.365 75.8379H116.363L118.534 91.2855Z" fill="white"/>
<path d="M118.714 79.9317H129.112L129.29 78.384H118.5L118.714 79.9317Z" fill="url(#paint19_linear_9_2474)"/>
<path d="M117.288 141.942H130.636L133.523 118.027H114.399L117.288 141.942Z" fill="#CECDD3"/>
<path d="M117.387 144.852C117.387 145.98 118.849 146.895 120.653 146.895H127.269C128.026 146.907 128.774 146.728 129.444 146.376C129.746 146.243 130.006 146.032 130.198 145.764C130.39 145.496 130.507 145.182 130.536 144.853V141.943H117.387V144.852Z" fill="white"/>
<path d="M133.523 116.323H114.398V118.027H133.523V116.323Z" fill="url(#paint20_linear_9_2474)"/>
<path d="M118.534 137.311H129.591L131.365 121.865H116.363L118.534 137.311Z" fill="white"/>
<path d="M118.714 125.959H129.112L129.29 124.41H118.5L118.714 125.959Z" fill="url(#paint21_linear_9_2474)"/>
<path d="M79.255 29.3013V19.6624H75.3772V29.3027C73.7081 30.3136 72.7339 32.3591 72.7339 34.654V52.4232C72.7332 52.5775 72.763 52.7305 72.8214 52.8733C72.8799 53.0162 72.966 53.1461 73.0748 53.2556C73.1835 53.3652 73.3128 53.4522 73.4552 53.5117C73.5976 53.5712 73.7503 53.6021 73.9047 53.6025H80.6447C80.7992 53.6022 80.9521 53.5713 81.0946 53.5119C81.2372 53.4524 81.3666 53.3654 81.4755 53.2559C81.5844 53.1463 81.6706 53.0164 81.7293 52.8736C81.788 52.7307 81.8179 52.5776 81.8174 52.4232V34.654C81.8174 32.2744 80.7694 30.2755 79.255 29.3013Z" fill="#5CCFFE"/>
<path d="M80.1707 40.8892H75.4567V41.9824H80.1707V40.8892Z" fill="url(#paint22_linear_9_2474)"/>
<path d="M80.4782 42.9337H74.5382V43.9865H80.4782V42.9337Z" fill="url(#paint23_linear_9_2474)"/>
<path d="M79.5802 18.4283H74.9703V27.5666H79.5802V18.4283Z" fill="#181F79"/>
<path d="M79.255 76.2756V66.6362H75.3772V76.2766C73.7081 77.2875 72.7339 79.333 72.7339 81.6279V99.3971C72.7332 99.5514 72.763 99.7044 72.8214 99.8472C72.8799 99.9901 72.966 100.12 73.0748 100.229C73.1835 100.339 73.3128 100.426 73.4552 100.486C73.5976 100.545 73.7503 100.576 73.9047 100.576H80.6447C80.7992 100.576 80.9521 100.545 81.0946 100.486C81.2372 100.426 81.3666 100.339 81.4755 100.23C81.5844 100.12 81.6706 99.9903 81.7293 99.8474C81.788 99.7046 81.8179 99.5515 81.8174 99.3971V81.6279C81.8174 79.2483 80.7694 77.2494 79.255 76.2756Z" fill="#5CCFFE"/>
<path d="M80.1707 87.864H75.4567V88.9572H80.1707V87.864Z" fill="url(#paint24_linear_9_2474)"/>
<path d="M80.4782 89.9076H74.5382V90.9603H80.4782V89.9076Z" fill="url(#paint25_linear_9_2474)"/>
<path d="M79.5802 65.4027H74.9703V74.541H79.5802V65.4027Z" fill="#181F79"/>
<path d="M79.255 219.069V209.427H75.3772V219.069C73.7081 220.08 72.7339 222.124 72.7339 224.419V242.189C72.7328 242.501 72.8555 242.8 73.075 243.022C73.2946 243.243 73.593 243.368 73.9047 243.369H80.6447C80.9566 243.368 81.2553 243.243 81.4752 243.022C81.6951 242.801 81.8182 242.501 81.8174 242.189V224.419C81.8174 222.041 80.7694 220.042 79.255 219.069Z" fill="#5CCFFE"/>
<path d="M80.1707 230.657H75.4567V231.75H80.1707V230.657Z" fill="url(#paint26_linear_9_2474)"/>
<path d="M80.4782 232.701H74.5382V233.754H80.4782V232.701Z" fill="url(#paint27_linear_9_2474)"/>
<path d="M79.5802 208.194H74.9703V217.334H79.5802V208.194Z" fill="#181F79"/>
<path d="M79.255 266.569V256.929H75.3772V266.569C73.7081 267.578 72.7339 269.625 72.7339 271.92V289.689C72.7332 289.844 72.763 289.997 72.8214 290.14C72.8799 290.282 72.966 290.412 73.0748 290.522C73.1835 290.631 73.3128 290.718 73.4552 290.778C73.5976 290.837 73.7503 290.868 73.9047 290.869H80.6447C80.7992 290.868 80.9521 290.838 81.0946 290.778C81.2372 290.719 81.3666 290.632 81.4755 290.522C81.5844 290.413 81.6706 290.283 81.7293 290.14C81.788 289.997 81.8179 289.844 81.8174 289.689V271.92C81.8174 269.542 80.7694 267.542 79.255 266.569Z" fill="#5CCFFE"/>
<path d="M80.1707 278.157H75.4567V279.249H80.1707V278.157Z" fill="url(#paint28_linear_9_2474)"/>
<path d="M80.4782 280.201H74.5382V281.254H80.4782V280.201Z" fill="url(#paint29_linear_9_2474)"/>
<path d="M79.5802 255.696H74.9703V264.834H79.5802V255.696Z" fill="#181F79"/>
<path d="M270.675 309.701C249.017 309.701 231.458 312.559 231.458 316.088C231.458 319.617 249.015 322.475 270.675 322.475C292.334 322.475 309.891 319.616 309.891 316.088C309.891 312.561 292.334 309.701 270.675 309.701Z" fill="#CECDD3"/>
<path d="M309.891 301.956H231.46V316.088H309.891V301.956Z" fill="#CECDD3"/>
<path d="M270.675 295.569C249.017 295.569 231.458 298.429 231.458 301.956C231.458 305.484 249.015 308.345 270.675 308.345C292.334 308.345 309.891 305.484 309.891 301.956C309.891 298.429 292.334 295.569 270.675 295.569Z" fill="white"/>
<path d="M270.675 297.263C250.557 297.263 234.248 299.365 234.248 301.956C234.248 304.548 250.557 306.651 270.675 306.651C290.792 306.651 307.101 304.552 307.101 301.956C307.101 299.361 290.793 297.263 270.675 297.263Z" fill="white"/>
<path d="M270.676 297.263C250.557 297.263 234.248 299.365 234.248 301.956C234.248 302.623 235.336 303.253 237.271 303.828C242.88 302.166 255.718 301.003 270.676 301.003C285.635 301.003 298.47 302.166 304.08 303.828C306.015 303.253 307.103 302.623 307.103 301.956C307.101 299.364 290.793 297.263 270.676 297.263Z" fill="#CECDD3"/>
<path d="M248.236 304.281L255.606 305.529L293.858 303.373L286.489 302.124L248.236 304.281Z" fill="url(#paint30_linear_9_2474)"/>
<path d="M277.609 291.24C277.564 290.926 271.439 289.189 271.312 291.248C271.202 293.009 271.665 295.732 270.126 297.13C268.359 298.733 261.811 302.132 258.813 302.573C258.66 303.016 259.179 303.387 259.622 303.538C261.838 304.288 264.252 303.961 266.579 303.719C269.275 303.437 271.981 303.283 274.695 303.256C275.901 303.243 277.333 303.136 277.945 302.096C278.402 301.321 278.194 300.347 278.088 299.452C277.761 296.729 277.999 293.955 277.609 291.24Z" fill="#FFA578"/>
<path d="M277.609 291.24C277.586 291.087 276.129 290.601 274.622 290.375C274.72 290.566 274.826 290.756 274.908 290.955C277.328 296.825 272.135 301.378 267.165 303.672C269.67 303.429 272.182 303.281 274.696 303.256C275.902 303.243 277.334 303.136 277.946 302.096C278.403 301.321 278.195 300.347 278.089 299.452C277.761 296.729 277.999 293.955 277.609 291.24Z" fill="#E68969"/>
<path d="M278.041 298.198C277.286 297.637 272.483 301.347 266.973 301.347C266.973 300.617 266.279 299.375 265.37 299.691C262.946 300.53 258.683 302.054 258.204 302.254C256.658 302.901 257.264 305.498 258.179 305.498H266.732C268.36 305.498 270.958 304.003 273.579 304.003C276.509 304.003 277.375 303.904 277.737 303.741C280.509 302.495 279.435 299.237 278.041 298.198Z" fill="#181F79"/>
<path d="M273.351 302.315C271.399 302.417 265.27 303.157 264.235 303.436C262.739 303.839 261.164 303.844 259.666 303.45C258.98 303.263 258.329 302.965 257.739 302.569C256.812 303.493 257.375 305.5 258.179 305.5H266.732C268.361 305.5 270.959 304.005 273.58 304.005C276.509 304.005 277.375 303.906 277.738 303.743C279.922 302.758 279.707 300.541 278.839 299.13C278.265 300.079 277.461 300.868 276.502 301.424C275.543 301.98 274.459 302.287 273.351 302.315Z" fill="#4497B7"/>
<path d="M270.06 256.38C270.743 262.944 269.886 294.026 269.886 294.026C273.293 295.638 277.794 295.168 277.794 295.168C277.794 295.168 283.165 270.465 283.515 263.78C283.858 257.187 281.973 253.743 284.354 242.553C286.736 231.363 290.881 216.842 290.881 216.842L271.296 215.813C271.296 215.813 269.035 246.52 270.06 256.38Z" fill="#4497B7"/>
<path d="M270.122 236.183C270.484 235.973 270.859 235.786 271.245 235.625C274.761 234.19 278.043 236.586 278.637 239.951C280.191 248.756 278.072 252.463 277.216 258.403C276.791 261.353 275.56 269.667 275.186 272.482C274.052 281.019 275.78 285.891 273.654 295.063C275.026 295.243 276.414 295.277 277.794 295.166C277.794 295.166 283.165 270.463 283.515 263.778C283.858 257.185 281.973 253.741 284.354 242.551C286.736 231.361 290.881 216.84 290.881 216.84L271.296 215.811C271.296 215.811 270.563 225.781 270.122 236.183Z" fill="#5CCFFE"/>
<path fill-rule="evenodd" clip-rule="evenodd" d="M284.172 155.537C273.987 161.46 265.216 168.585 261.955 170.211L265.501 177.279C273.468 175.756 284.035 170.291 290.558 166.443C291.991 165.59 293.029 164.205 293.446 162.589C293.862 160.974 293.622 159.259 292.779 157.82C291.936 156.38 290.558 155.332 288.946 154.904C287.333 154.477 285.617 154.704 284.172 155.537Z" fill="white"/>
<path fill-rule="evenodd" clip-rule="evenodd" d="M264.548 169.935C256.198 169.056 246.673 168.752 242.568 166.932C241.606 166.507 240.498 166.418 239.969 165.336C238.851 163.042 237.15 161.753 235.108 160.802C233.228 159.925 234.519 162.42 232.158 161.679C230.759 161.239 226.827 159.489 226.47 159.948C225.738 160.884 226.923 161.447 228.316 162.019C228.176 162.145 228.07 162.306 228.009 162.484C227.948 162.663 227.933 162.854 227.966 163.041C227.999 163.227 228.079 163.401 228.198 163.548C228.317 163.695 228.471 163.808 228.647 163.879C228.548 164.063 228.489 164.266 228.473 164.474C228.457 164.682 228.485 164.891 228.554 165.088C228.623 165.285 228.733 165.465 228.875 165.618C229.018 165.77 229.191 165.891 229.383 165.973C228.902 167.115 229.56 167.829 231.124 168.265C232.794 168.731 235.244 170 239.732 171.344C245.61 173.105 262.074 179.8 266.65 176.779C268.463 175.583 267.409 170.236 264.548 169.935Z" fill="#FFA578"/>
<path fill-rule="evenodd" clip-rule="evenodd" d="M265.685 168.896C257.332 168.016 246.872 167.853 242.768 166.033C242.543 165.933 242.307 165.858 242.076 165.776C241.833 167.472 240.867 171.18 239.827 172.563C245.828 174.388 262.648 179.905 267.185 176.909C269 175.71 268.547 169.198 265.685 168.896Z" fill="white"/>
<path fill-rule="evenodd" clip-rule="evenodd" d="M263.97 172.53C256.577 172.5 248.522 173.202 240.968 170.145C240.702 171 240.317 171.814 239.825 172.562C262.955 180.519 267.186 176.905 267.189 176.904C274.909 175.005 284.484 170.024 290.557 166.442C292.262 165.437 293.745 164.044 293.65 161.47C289.538 164.989 284.029 164.953 278.887 167.798C274.024 170.487 270.001 172.556 263.97 172.53Z" fill="#CECDD3"/>
<path fill-rule="evenodd" clip-rule="evenodd" d="M231.594 157.355C231.261 158.515 231.892 159.622 233.423 160.268C233.891 161.318 234.677 162.196 235.671 162.776L238.374 163.034L235.003 159.483C233.784 158.916 232.639 158.201 231.594 157.355Z" fill="#FFA578"/>
<path fill-rule="evenodd" clip-rule="evenodd" d="M231.12 161.488C229.969 160.963 228.79 160.501 227.589 160.104C226.956 159.884 226.485 160.065 226.421 160.392C226.359 160.709 226.409 161.076 227.182 161.375C228.414 161.856 229.682 162.24 230.974 162.523C232.063 162.773 232.586 162.136 231.12 161.488Z" fill="#FFA578"/>
<path fill-rule="evenodd" clip-rule="evenodd" d="M233.682 163.736C232.087 163.159 230.565 162.812 228.979 162.246C228.349 162.022 228.164 162.327 228.116 162.682C228.069 163.027 228.137 163.413 228.93 163.655C230.461 164.122 232.022 164.482 233.603 164.731C234.708 164.89 235.189 164.279 233.682 163.736Z" fill="#FFA578"/>
<path fill-rule="evenodd" clip-rule="evenodd" d="M233.67 165.252C232.218 164.801 230.922 164.596 229.478 164.154C228.907 163.978 228.713 164.363 228.664 164.714C228.616 165.054 228.674 165.428 229.396 165.609C230.795 165.96 232.218 166.202 233.654 166.335C234.665 166.411 235.04 165.679 233.67 165.252Z" fill="#FFA578"/>
<path fill-rule="evenodd" clip-rule="evenodd" d="M233.841 167.149C232.389 166.697 231.656 166.521 230.214 166.078C229.64 165.902 229.467 166.216 229.418 166.567C229.371 166.906 229.428 167.281 230.151 167.461C231.33 167.791 232.536 168.014 233.755 168.128C234.764 168.206 235.212 167.575 233.841 167.149Z" fill="#FFA578"/>
<path d="M238.161 155.074H235.983C235.765 155.074 235.549 155.117 235.348 155.2C235.147 155.283 234.964 155.405 234.81 155.559C234.656 155.713 234.534 155.896 234.45 156.097C234.367 156.298 234.324 156.514 234.324 156.732V159.076H239.82V156.732C239.82 156.514 239.777 156.298 239.694 156.097C239.61 155.896 239.488 155.713 239.334 155.559C239.18 155.405 238.997 155.283 238.796 155.2C238.594 155.116 238.379 155.074 238.161 155.074Z" fill="#5CCFFE"/>
<path d="M238.161 155.074H235.983C235.765 155.074 235.549 155.117 235.348 155.2C235.147 155.283 234.964 155.405 234.81 155.559C234.656 155.713 234.534 155.896 234.45 156.097C234.367 156.298 234.324 156.514 234.324 156.732V159.076H236.449V157.681C236.449 155.857 238.355 155.271 239.594 155.91C239.451 155.656 239.242 155.445 238.99 155.298C238.739 155.151 238.452 155.074 238.161 155.074Z" fill="#4497B7"/>
<path d="M239.785 159.076H234.543C234.014 159.077 233.506 159.288 233.132 159.662C232.758 160.036 232.548 160.543 232.547 161.072V178.788C232.548 179.182 232.704 179.56 232.983 179.839C233.262 180.118 233.64 180.274 234.034 180.275H240.294C240.688 180.274 241.066 180.118 241.345 179.839C241.624 179.56 241.78 179.182 241.78 178.788V161.072C241.781 160.543 241.57 160.035 241.196 159.661C240.822 159.287 240.315 159.076 239.785 159.076Z" fill="#4497B7"/>
<path d="M239.785 159.076H234.543C234.013 159.076 233.506 159.287 233.132 159.661C232.758 160.036 232.548 160.543 232.548 161.072V178.788C232.549 179.182 232.705 179.56 232.984 179.839C233.262 180.117 233.64 180.274 234.034 180.275H235.488V164.837C235.488 161.227 239.762 160.389 241.78 162.296V161.072C241.781 160.543 241.57 160.035 241.196 159.661C240.822 159.287 240.315 159.076 239.785 159.076Z" fill="#5CCFFE"/>
<path d="M296.807 291.24C296.759 290.926 290.637 289.189 290.509 291.248C290.4 293.009 290.863 295.732 289.323 297.13C287.557 298.733 281.008 302.132 278.012 302.573C277.858 303.016 278.377 303.387 278.821 303.538C281.035 304.288 283.45 303.961 285.775 303.719C288.472 303.437 291.183 303.284 293.893 303.256C295.099 303.243 296.531 303.136 297.143 302.096C297.601 301.321 297.392 300.347 297.286 299.452C296.959 296.729 297.196 293.955 296.807 291.24Z" fill="#FFA578"/>
<path d="M296.807 291.24C296.785 291.087 295.328 290.601 293.821 290.375C293.918 290.566 294.022 290.756 294.106 290.955C296.527 296.825 291.333 301.378 286.364 303.672C288.868 303.429 291.379 303.281 293.894 303.256C295.1 303.243 296.532 303.136 297.144 302.096C297.602 301.321 297.393 300.347 297.287 299.452C296.959 296.729 297.196 293.955 296.807 291.24Z" fill="#E68969"/>
<path d="M297.238 298.198C296.483 297.637 291.682 301.347 286.171 301.347C286.171 300.617 285.476 299.375 284.568 299.691C282.144 300.53 277.879 302.054 277.403 302.254C275.856 302.901 276.463 305.498 277.376 305.498H285.93C287.559 305.498 290.155 304.003 292.776 304.003C295.707 304.003 296.571 303.904 296.936 303.741C299.707 302.495 298.63 299.237 297.238 298.198Z" fill="#181F79"/>
<path d="M292.549 302.315C290.598 302.417 284.469 303.157 283.433 303.436C281.937 303.839 280.362 303.844 278.864 303.45C278.178 303.263 277.527 302.965 276.937 302.569C276.01 303.493 276.573 305.5 277.376 305.5H285.93C287.559 305.5 290.155 304.005 292.776 304.005C295.707 304.005 296.572 303.906 296.936 303.743C299.12 302.758 298.905 300.541 298.037 299.13C297.463 300.079 296.659 300.867 295.7 301.424C294.741 301.98 293.657 302.287 292.549 302.315Z" fill="#4497B7"/>
<path d="M294.693 140.003C294.901 139.617 295.082 139.088 294.766 138.783C294.506 138.532 294.084 138.615 293.74 138.719C291.881 139.271 290.05 139.907 288.248 140.629C285.199 141.85 281.106 143.813 282.768 146.576C284.814 149.971 282.213 157.556 282.213 157.556C282.213 157.556 295.009 155.652 294.937 155.408C293.871 151.772 293.289 142.621 294.693 140.003Z" fill="#FFA578"/>
<path d="M294.693 140.003C294.901 139.617 295.082 139.088 294.766 138.783C294.506 138.532 294.084 138.615 293.74 138.719C292.15 139.19 288.263 141.16 286.716 141.757C287.911 145.707 286.803 154.488 285.071 157.124C288.834 156.548 294.988 155.579 294.937 155.41C293.871 151.772 293.289 142.621 294.693 140.003Z" fill="#E68969"/>
<path d="M299.394 215.205L279.863 216.98C279.863 216.98 282.005 247.695 284.428 257.309C286.042 263.709 289.628 294.595 289.628 294.595C293.23 295.704 297.617 294.595 297.617 294.595C297.617 294.595 299.409 269.378 298.801 262.708C298.2 256.136 295.842 252.995 296.603 241.581C297.364 230.167 299.394 215.205 299.394 215.205Z" fill="#4497B7"/>
<path d="M299.394 215.205L279.863 216.98C279.863 216.98 280.559 226.951 281.606 237.309C281.936 237.05 282.281 236.812 282.64 236.595C285.913 234.674 289.503 236.576 290.573 239.823C293.367 248.316 291.799 252.287 291.799 258.289C291.799 261.267 291.766 269.675 291.799 272.514C291.894 281.128 294.301 285.701 293.504 295.082C294.888 295.064 296.267 294.9 297.617 294.594C297.617 294.594 299.409 269.378 298.801 262.707C298.2 256.136 295.842 252.994 296.603 241.58C297.364 230.167 299.394 215.205 299.394 215.205Z" fill="#5CCFFE"/>
<path d="M281.33 123.037C280.422 125.28 277.951 129.29 275.461 130.768C274.843 131.136 274.003 131.75 274.895 133.937C275.927 136.475 275.859 145.757 278 147.054C279.536 147.985 286.076 146.807 287.399 146.245C291.517 144.501 294.267 140.421 295.544 136.135C296.549 132.76 296.748 128.996 295.252 125.807C292.344 119.613 283.686 117.217 281.33 123.037Z" fill="#FFA578"/>
<path d="M291.05 121.158C292.272 122.322 293.203 123.756 293.769 125.346C295.59 130.373 294.509 135.349 291.175 139.41C288.649 142.488 284.792 145.92 280.874 146.866C280.047 147.059 279.204 147.173 278.356 147.207C280.353 147.835 286.162 146.772 287.399 146.246C291.517 144.502 294.266 140.422 295.543 136.136C296.549 132.761 296.749 128.997 295.252 125.808C294.331 123.884 292.871 122.268 291.05 121.158Z" fill="#E68969"/>
<path d="M294.131 153.175C290.346 154.388 286.75 153.741 282.223 156.29C277.696 158.838 271.485 168.479 271.485 171.659C271.485 176.609 273.702 177.528 273.702 179.862C273.702 186.572 255.985 247.322 253.996 256.142C259.686 257.893 300.922 261.477 305.954 258.296C305.51 255.926 301.995 180.096 301.995 178.808C301.995 162.476 297.906 151.965 294.131 153.175Z" fill="#CECDD3"/>
<path d="M288.575 117.269C285.955 117.737 283.618 119.999 282.549 122.046C281.112 124.798 282.406 129.946 283.367 130.675C284.448 131.499 285.219 128.755 286.864 130.383C287.93 131.437 286.951 135.607 284.396 137.04C283.677 137.444 282.762 137.984 283.409 139.404C286.635 146.492 293.769 147.103 294.188 146.972C297.327 145.98 305.093 139.492 305.389 131.905C305.678 124.513 302.623 114.761 288.575 117.269Z" fill="#B88704"/>
<path d="M302.946 123.193C298.652 120.598 289.264 119.901 288.573 127.476C287.345 140.998 291.058 147.019 293.436 147.023C295.721 147.027 299.971 143.08 302.003 140.492C307.468 133.533 305.496 124.732 302.946 123.193Z" fill="#F5C825"/>
<path d="M304.561 130.263C303.543 130.263 302.535 130.464 301.595 130.853C300.655 131.242 299.801 131.813 299.081 132.533C298.362 133.252 297.791 134.106 297.401 135.046C297.012 135.987 296.811 136.994 296.811 138.012C296.811 140.067 297.628 142.038 299.081 143.492C300.534 144.945 302.505 145.761 304.561 145.761C306.616 145.761 308.587 144.945 310.04 143.491C311.494 142.038 312.31 140.067 312.31 138.012C312.31 135.957 311.493 133.986 310.04 132.533C308.587 131.08 306.616 130.263 304.561 130.263Z" fill="#F5C825"/>
<path d="M306 144.331C297.278 144.331 296.926 131.386 304.89 130.28C304.78 130.275 304.672 130.263 304.561 130.263C303.543 130.263 302.535 130.464 301.595 130.853C300.655 131.242 299.801 131.813 299.081 132.533C298.362 133.252 297.791 134.106 297.401 135.046C297.012 135.987 296.811 136.994 296.811 138.012C296.811 140.067 297.628 142.038 299.081 143.492C300.534 144.945 302.505 145.761 304.561 145.761C305.878 145.761 307.173 145.424 308.324 144.783C309.475 144.141 310.443 143.217 311.136 142.097C310.501 142.829 309.71 143.409 308.821 143.796C307.932 144.182 306.969 144.365 306 144.331Z" fill="#B88704"/>
<path fill-rule="evenodd" clip-rule="evenodd" d="M284.07 156.327C276.134 165.033 269.904 174.463 267.28 176.993L272.784 182.67C279.927 178.829 288.367 170.442 293.434 164.815C294.56 163.573 295.146 161.935 295.063 160.261C294.981 158.587 294.237 157.014 292.996 155.889C291.754 154.763 290.116 154.177 288.442 154.26C286.768 154.342 285.195 155.086 284.07 156.327Z" fill="#CECDD3"/>
<path fill-rule="evenodd" clip-rule="evenodd" d="M269.671 175.951C261.441 177.617 252.264 180.187 247.804 179.683C246.757 179.566 245.675 179.815 244.846 178.941C243.091 177.089 241.08 176.368 238.85 176.075C236.792 175.802 238.773 177.798 236.297 177.797C234.831 177.797 230.558 177.31 230.353 177.854C229.936 178.965 231.234 179.148 232.735 179.275C232.639 179.438 232.586 179.622 232.581 179.811C232.576 180 232.62 180.187 232.707 180.355C232.794 180.522 232.923 180.665 233.081 180.769C233.238 180.873 233.42 180.935 233.608 180.949C233.569 181.155 233.573 181.366 233.621 181.57C233.668 181.773 233.756 181.965 233.882 182.132C234.007 182.299 234.165 182.439 234.347 182.542C234.529 182.644 234.731 182.708 234.939 182.729C234.823 183.962 235.666 184.447 237.29 184.395C239.02 184.338 241.737 184.813 246.422 184.747C252.558 184.664 270.273 186.108 273.731 181.854C275.102 180.163 272.493 175.379 269.671 175.951Z" fill="#FFA578"/>
<path fill-rule="evenodd" clip-rule="evenodd" d="M270.444 174.62C262.213 176.285 252.186 179.271 247.724 178.766C247.479 178.738 247.232 178.737 246.988 178.73C247.266 180.42 247.455 184.246 246.88 185.877C253.151 185.819 270.85 186.033 274.28 181.813C275.651 180.124 273.263 174.048 270.444 174.62Z" fill="#CECDD3"/>
<path fill-rule="evenodd" clip-rule="evenodd" d="M282.711 169.608C278.877 173.633 275.799 176.574 270.038 178.362C262.977 180.551 255.364 183.878 247.241 183.231C247.244 184.125 247.122 185.016 246.878 185.877C273.07 186.194 273.118 182.403 274.282 181.807C281.169 178.281 288.716 170.055 293.433 164.816C294.757 163.345 295.757 161.572 294.893 159.144C292.029 163.736 286.763 165.353 282.711 169.608Z" fill="white"/>
<path fill-rule="evenodd" clip-rule="evenodd" d="M234.46 173.843C234.491 175.047 235.425 175.916 237.078 176.072C237.84 176.934 238.854 177.534 239.975 177.79L242.631 177.224L238.348 174.848C237.016 174.673 235.71 174.336 234.46 173.843Z" fill="#FFA578"/>
<path fill-rule="evenodd" clip-rule="evenodd" d="M235.249 177.925C233.994 177.77 232.73 177.684 231.465 177.666C230.796 177.645 230.4 177.959 230.438 178.291C230.474 178.611 230.633 178.947 231.46 179.001C232.78 179.089 234.104 179.074 235.421 178.956C236.535 178.871 236.843 178.105 235.249 177.925Z" fill="#FFA578"/>
<path fill-rule="evenodd" clip-rule="evenodd" d="M238.367 179.302C236.673 179.232 235.117 179.356 233.434 179.293C232.768 179.268 232.681 179.614 232.741 179.968C232.801 180.311 232.983 180.658 233.811 180.651C235.411 180.637 237.008 180.511 238.59 180.275C239.693 180.094 239.969 179.367 238.367 179.302Z" fill="#FFA578"/>
<path fill-rule="evenodd" clip-rule="evenodd" d="M238.811 180.751C237.292 180.757 235.993 180.949 234.483 180.961C233.884 180.967 233.816 181.393 233.876 181.742C233.932 182.08 234.099 182.419 234.842 182.374C236.282 182.29 237.712 182.094 239.121 181.789C240.107 181.559 240.247 180.748 238.811 180.751Z" fill="#FFA578"/>
<path fill-rule="evenodd" clip-rule="evenodd" d="M239.544 182.51C238.024 182.514 237.271 182.567 235.762 182.578C235.163 182.581 235.09 182.933 235.149 183.282C235.206 183.621 235.373 183.96 236.117 183.915C237.34 183.877 238.558 183.728 239.754 183.47C240.741 183.242 240.978 182.506 239.544 182.51Z" fill="#FFA578"/>
<path d="M271.348 305.498H276.726L278.08 302.053L271.719 303.885C271.744 304.447 271.616 305.004 271.348 305.498Z" fill="#4497B7"/>
<path d="M291.799 305.498H297.177L298.531 302.053L292.171 303.885C292.195 304.447 292.066 305.004 291.799 305.498Z" fill="#4497B7"/>
<path d="M285.456 118.638C291.909 130.665 306.41 128.437 306.41 128.437L315.172 116.147L288.536 103.378L285.456 118.638Z" fill="white"/>
<path d="M303.14 106.844C295.795 103.275 289.257 101.688 288.536 103.302C287.815 104.915 293.183 109.115 300.529 112.684C307.875 116.253 314.412 117.839 315.135 116.225C315.857 114.612 310.484 110.414 303.14 106.844Z" fill="#CECDD3"/>
<path d="M294.131 153.175C292.78 153.608 291.641 162.057 291.279 165.98C290.839 170.704 286.333 178.029 290.68 187.235C294.937 196.248 290.001 204.409 290.562 210.049C292.108 225.636 285.071 224.43 285.071 241.589C285.071 247.248 282.784 252.768 282.784 259.217C289.628 259.567 302.33 260.143 305.954 258.296C305.51 255.926 301.995 180.096 301.995 178.808C301.995 162.476 297.906 151.965 294.131 153.175Z" fill="white"/>
</g>
<defs>
<linearGradient id="paint0_linear_9_2474" x1="232.477" y1="313.737" x2="232.477" y2="310.318" gradientUnits="userSpaceOnUse">
<stop stop-color="white"/>
<stop offset="1" stop-color="#8000FF"/>
</linearGradient>
<radialGradient id="paint1_radial_9_2474" cx="0" cy="0" r="1" gradientUnits="userSpaceOnUse" gradientTransform="translate(-1487.33 -637.888) scale(8.82004 8.81978)">
<stop offset="0.103" stop-color="white"/>
<stop offset="0.166" stop-color="#F6F6F6"/>
<stop offset="0.268" stop-color="#DFDFDF"/>
<stop offset="0.394" stop-color="#B9B9B9"/>
<stop offset="0.54" stop-color="#848484"/>
<stop offset="0.702" stop-color="#424242"/>
<stop offset="0.848"/>
</radialGradient>
<radialGradient id="paint2_radial_9_2474" cx="0" cy="0" r="1" gradientUnits="userSpaceOnUse" gradientTransform="translate(2.39392e+07 26629.2) scale(0)">
<stop offset="0.103" stop-color="white"/>
<stop offset="0.166" stop-color="#F6F6F6"/>
<stop offset="0.268" stop-color="#DFDFDF"/>
<stop offset="0.394" stop-color="#B9B9B9"/>
<stop offset="0.54" stop-color="#848484"/>
<stop offset="0.702" stop-color="#424242"/>
<stop offset="0.848"/>
</radialGradient>
<linearGradient id="paint3_linear_9_2474" x1="294.23" y1="322.927" x2="294.23" y2="319.524" gradientUnits="userSpaceOnUse">
<stop stop-color="white"/>
<stop offset="1" stop-color="#8000FF"/>
</linearGradient>
<linearGradient id="paint4_linear_9_2474" x1="313.757" y1="279.332" x2="313.757" y2="277.163" gradientUnits="userSpaceOnUse">
<stop stop-color="white"/>
<stop offset="1" stop-color="#8000FF"/>
</linearGradient>
<linearGradient id="paint5_linear_9_2474" x1="313.06" y1="242.196" x2="313.06" y2="240.552" gradientUnits="userSpaceOnUse">
<stop stop-color="white"/>
<stop offset="1" stop-color="#8000FF"/>
</linearGradient>
<linearGradient id="paint6_linear_9_2474" x1="174.24" y1="343.835" x2="174.24" y2="342.191" gradientUnits="userSpaceOnUse">
<stop stop-color="white"/>
<stop offset="1" stop-color="#8000FF"/>
</linearGradient>
<linearGradient id="paint7_linear_9_2474" x1="123.961" y1="262.096" x2="123.961" y2="260.392" gradientUnits="userSpaceOnUse">
<stop stop-color="white"/>
<stop offset="1" stop-color="#8000FF"/>
</linearGradient>
<linearGradient id="paint8_linear_9_2474" x1="123.895" y1="270.028" x2="123.895" y2="268.48" gradientUnits="userSpaceOnUse">
<stop stop-color="white"/>
<stop offset="1" stop-color="#8000FF"/>
</linearGradient>
<linearGradient id="paint9_linear_9_2474" x1="196.073" y1="311.843" x2="196.073" y2="36.7116" gradientUnits="userSpaceOnUse">
<stop stop-color="#F5C825"/>
<stop offset="1" stop-color="#EB4201"/>
</linearGradient>
<linearGradient id="paint10_linear_9_2474" x1="148.171" y1="308.817" x2="148.171" y2="33.6851" gradientUnits="userSpaceOnUse">
<stop stop-color="#F5C825"/>
<stop offset="1" stop-color="#EB4201"/>
</linearGradient>
<linearGradient id="paint11_linear_9_2474" x1="100.269" y1="311.018" x2="100.269" y2="35.8862" gradientUnits="userSpaceOnUse">
<stop stop-color="#F5C825"/>
<stop offset="1" stop-color="#EB4201"/>
</linearGradient>
<linearGradient id="paint12_linear_9_2474" x1="171.622" y1="38.134" x2="171.622" y2="32.8427" gradientUnits="userSpaceOnUse">
<stop stop-color="white"/>
<stop offset="1" stop-color="#8000FF"/>
</linearGradient>
<linearGradient id="paint13_linear_9_2474" x1="171.986" y1="43.5624" x2="171.986" y2="41.7582" gradientUnits="userSpaceOnUse">
<stop stop-color="white"/>
<stop offset="1" stop-color="#8000FF"/>
</linearGradient>
<linearGradient id="paint14_linear_9_2474" x1="171.622" y1="85.6329" x2="171.622" y2="80.343" gradientUnits="userSpaceOnUse">
<stop stop-color="white"/>
<stop offset="1" stop-color="#8000FF"/>
</linearGradient>
<linearGradient id="paint15_linear_9_2474" x1="171.986" y1="91.0608" x2="171.986" y2="89.2594" gradientUnits="userSpaceOnUse">
<stop stop-color="white"/>
<stop offset="1" stop-color="#8000FF"/>
</linearGradient>
<linearGradient id="paint16_linear_9_2474" x1="171.622" y1="180.634" x2="171.622" y2="175.344" gradientUnits="userSpaceOnUse">
<stop stop-color="white"/>
<stop offset="1" stop-color="#8000FF"/>
</linearGradient>
<linearGradient id="paint17_linear_9_2474" x1="171.986" y1="186.063" x2="171.986" y2="184.26" gradientUnits="userSpaceOnUse">
<stop stop-color="white"/>
<stop offset="1" stop-color="#8000FF"/>
</linearGradient>
<linearGradient id="paint18_linear_9_2474" x1="123.961" y1="71.9995" x2="123.961" y2="70.2957" gradientUnits="userSpaceOnUse">
<stop stop-color="white"/>
<stop offset="1" stop-color="#8000FF"/>
</linearGradient>
<linearGradient id="paint19_linear_9_2474" x1="123.895" y1="79.9317" x2="123.895" y2="78.384" gradientUnits="userSpaceOnUse">
<stop stop-color="white"/>
<stop offset="1" stop-color="#8000FF"/>
</linearGradient>
<linearGradient id="paint20_linear_9_2474" x1="123.961" y1="118.027" x2="123.961" y2="116.323" gradientUnits="userSpaceOnUse">
<stop stop-color="white"/>
<stop offset="1" stop-color="#8000FF"/>
</linearGradient>
<linearGradient id="paint21_linear_9_2474" x1="123.895" y1="125.959" x2="123.895" y2="124.41" gradientUnits="userSpaceOnUse">
<stop stop-color="white"/>
<stop offset="1" stop-color="#8000FF"/>
</linearGradient>
<linearGradient id="paint22_linear_9_2474" x1="77.8137" y1="41.9824" x2="77.8137" y2="40.8892" gradientUnits="userSpaceOnUse">
<stop stop-color="white"/>
<stop offset="1" stop-color="#8000FF"/>
</linearGradient>
<linearGradient id="paint23_linear_9_2474" x1="77.5082" y1="43.9865" x2="77.5082" y2="42.9337" gradientUnits="userSpaceOnUse">
<stop stop-color="white"/>
<stop offset="1" stop-color="#8000FF"/>
</linearGradient>
<linearGradient id="paint24_linear_9_2474" x1="77.8137" y1="88.9572" x2="77.8137" y2="87.864" gradientUnits="userSpaceOnUse">
<stop stop-color="white"/>
<stop offset="1" stop-color="#8000FF"/>
</linearGradient>
<linearGradient id="paint25_linear_9_2474" x1="77.5082" y1="90.9603" x2="77.5082" y2="89.9076" gradientUnits="userSpaceOnUse">
<stop stop-color="white"/>
<stop offset="1" stop-color="#8000FF"/>
</linearGradient>
<linearGradient id="paint26_linear_9_2474" x1="77.8137" y1="231.75" x2="77.8137" y2="230.657" gradientUnits="userSpaceOnUse">
<stop stop-color="white"/>
<stop offset="1" stop-color="#8000FF"/>
</linearGradient>
<linearGradient id="paint27_linear_9_2474" x1="77.5082" y1="233.754" x2="77.5082" y2="232.701" gradientUnits="userSpaceOnUse">
<stop stop-color="white"/>
<stop offset="1" stop-color="#8000FF"/>
</linearGradient>
<linearGradient id="paint28_linear_9_2474" x1="77.8137" y1="279.249" x2="77.8137" y2="278.157" gradientUnits="userSpaceOnUse">
<stop stop-color="white"/>
<stop offset="1" stop-color="#8000FF"/>
</linearGradient>
<linearGradient id="paint29_linear_9_2474" x1="77.5082" y1="281.254" x2="77.5082" y2="280.201" gradientUnits="userSpaceOnUse">
<stop stop-color="white"/>
<stop offset="1" stop-color="#8000FF"/>
</linearGradient>
<linearGradient id="paint30_linear_9_2474" x1="271.047" y1="305.529" x2="271.047" y2="302.124" gradientUnits="userSpaceOnUse">
<stop stop-color="white"/>
<stop offset="1" stop-color="#8000FF"/>
</linearGradient>
<clipPath id="clip0_9_2474">
<rect width="514" height="514" fill="white" transform="translate(-62)"/>
</clipPath>
</defs>
</svg>
